<svg xmlns="http://www.w3.org/2000/svg" width="49.26" height="38.481" viewBox="0 0 49.26 38.481">
  <path id="Icon_awesome-hands-helping" data-name="Icon awesome-hands-helping" d="M37.561,14.432h-11.7v4.209a5.543,5.543,0,0,1-11.084,0V9.5l-5,2.931a4.779,4.779,0,0,0-2.394,4.119v3.555L1.232,23.579a2.369,2.369,0,0,0-.9,3.285L6.489,37.282a2.5,2.5,0,0,0,3.364.879l7.959-4.487H28.325a4.874,4.874,0,0,0,4.926-4.811h1.232a2.432,2.432,0,0,0,2.463-2.405V21.648h.616a1.822,1.822,0,0,0,1.847-1.8V16.236A1.822,1.822,0,0,0,37.561,14.432ZM48.929,11.62,42.772,1.2A2.5,2.5,0,0,0,39.408.323L31.45,4.81H23.583a5.052,5.052,0,0,0-2.609.729L18.4,7.111a2.377,2.377,0,0,0-1.155,2.037v9.493a3.08,3.08,0,0,0,6.158,0V12.026H37.561a4.263,4.263,0,0,1,4.31,4.209v2.142l6.158-3.473A2.377,2.377,0,0,0,48.929,11.62Z" transform="translate(0.002 -0.002)" fill="#707070"/>
</svg>
