<svg xmlns="http://www.w3.org/2000/svg" width="31.5" height="36" viewBox="0 0 31.5 36">
  <path id="Icon_awesome-hand-paper" data-name="Icon awesome-hand-paper" d="M28.742,9a2.857,2.857,0,0,0-2.867,2.868V18h-.562V5.61a2.857,2.857,0,0,0-2.867-2.868,2.813,2.813,0,0,0-2.758,2.812V18h-.562V2.868A2.857,2.857,0,0,0,16.258,0,2.813,2.813,0,0,0,13.5,2.813V18h-.562V5.681A2.857,2.857,0,0,0,10.07,2.813,2.813,2.813,0,0,0,7.313,5.625V22.218l-2.225-3.06A2.813,2.813,0,1,0,.538,22.467L9.369,34.61A3.375,3.375,0,0,0,12.1,36H25.992a3.375,3.375,0,0,0,3.285-2.6l1.864-7.921a13.5,13.5,0,0,0,.359-3.092V11.813A2.812,2.812,0,0,0,28.742,9Z" fill="#707070"/>
</svg>
