<svg xmlns="http://www.w3.org/2000/svg" width="108.13" height="75.277" viewBox="0 0 108.13 75.277">
  <path id="Icon_awesome-info-circle" data-name="Icon awesome-info-circle" d="M54.628.563C24.77.563.563,17.421.563,38.2S24.77,75.84,54.628,75.84,108.693,58.993,108.693,38.2,84.485.563,54.628.563Zm0,16.695c5.057,0,9.156,2.854,9.156,6.374s-4.1,6.374-9.156,6.374-9.156-2.854-9.156-6.374S49.571,17.257,54.628,17.257ZM66.836,55.806c0,1.006-1.171,1.821-2.616,1.821H45.035c-1.445,0-2.616-.815-2.616-1.821V52.164c0-1.006,1.171-1.821,2.616-1.821h2.616V40.629H45.035c-1.445,0-2.616-.815-2.616-1.821V35.166c0-1.006,1.171-1.821,2.616-1.821H58.988c1.445,0,2.616.815,2.616,1.821V50.343H64.22c1.445,0,2.616.815,2.616,1.821Z" transform="translate(-0.563 -0.563)"/>
</svg>
