<svg xmlns="http://www.w3.org/2000/svg" width="76.293" height="62.75" viewBox="0 0 76.293 62.75"><path d="M6,49.237c0,2.906,1.86,5.515,4.768,7.332v5.879c0,1.816,2.146,3.3,4.768,3.3h4.768c2.623,0,4.768-1.486,4.768-3.3v-3.3H63.22v3.3c0,1.816,2.146,3.3,4.768,3.3h4.768c2.623,0,4.768-1.486,4.768-3.3V56.569c2.909-1.816,4.768-4.426,4.768-7.332V16.211C82.293,4.651,65.223,3,44.147,3S6,4.651,6,16.211Zm16.689,3.3c-3.958,0-7.153-2.213-7.153-4.954s3.195-4.954,7.153-4.954,7.153,2.213,7.153,4.954S26.647,52.54,22.689,52.54Zm42.915,0c-3.958,0-7.153-2.213-7.153-4.954s3.195-4.954,7.153-4.954,7.153,2.213,7.153,4.954S69.562,52.54,65.6,52.54Zm7.153-19.816H15.537V16.211h57.22Z" transform="translate(-6 -3)" fill="#096ead"/></svg>